<svg id="Layer_1" data-name="Layer 1" xmlns="http://www.w3.org/2000/svg" viewBox="0 0 302.09 140.84"><path d="M296.1,203.8c.48-.35,1-.67,1.47-1,5.39-3.92,8.58-9,8.55-15.84,0-9.7-8-18.22-17.41-18.68-10.95-.53-19.36,6.58-20.5,17.34a18.87,18.87,0,0,0,15.93,20.16c2.49.32,4.57,1.05,6.08,2.8,4,4.65,9.12,2.77,14.64,3.17l-8.95-7.56C296,204,296,203.84,296.1,203.8ZM287,199.72a12.17,12.17,0,0,1-12.45-12.6,13,13,0,0,1,12.72-12.6,12.6,12.6,0,1,1-.27,25.2Z" transform="translate(-66.33 -70.93)"/><path d="M104.38,168.17v37.25c-4.23-1.35-6.37-4.17-6.37-8.37V181.43c-4,3.08-7.64,5.76-11.13,8.62-1.26,1-2,1-3.25,0-3.45-2.83-7-5.5-10.55-8.23-.9.47-.5,1.25-.5,1.85,0,4.89-.14,9.78,0,14.66a4.53,4.53,0,0,1-2.34,4.64,45.7,45.7,0,0,0-3.94,3V168.14l12,9.3c1.83,1.42,3.71,2.79,5.45,4.32,1.12,1,1.86.94,3,0,5.29-4.24,10.67-8.38,16-12.54C103.2,168.92,103.63,168.67,104.38,168.17Z" transform="translate(-66.33 -70.93)"/><path d="M207,168.09h-5.26C203.48,168,205.24,168,207,168.09Z" transform="translate(-66.33 -70.93)"/><path d="M246.86,168.09c6.4,12.75,12.62,25.13,19,37.93-2.45,0-4.55-.05-6.64,0-1.3,0-1.48-.93-1.88-1.75l-9.09-19c-.4-.85-.82-1.69-1.28-2.62-1.21,1.1-1.54,2.55-2.15,3.83-2.84,5.85-5.67,11.72-8.36,17.64a2.75,2.75,0,0,1-3.1,1.93c-1.7-.14-3.41,0-5.55,0Z" transform="translate(-66.33 -70.93)"/><path d="M130.29,168.09c6.41,12.75,12.62,25.13,19,37.93-2.45,0-4.54-.05-6.64,0-1.29,0-1.48-.93-1.88-1.75q-4.55-9.51-9.09-19c-.4-.85-.82-1.69-1.28-2.62-1.21,1.1-1.53,2.55-2.15,3.83-2.83,5.85-5.67,11.72-8.36,17.64a2.75,2.75,0,0,1-3.1,1.93c-1.69-.14-3.41,0-5.55,0Z" transform="translate(-66.33 -70.93)"/><path d="M335.66,168.06c-4.79,5.84-9.05,11.21-13.52,16.39-1.47,1.71-1.38,2.74,0,4.43,4.48,5.49,8.76,11.14,13.44,17.14-2.86,0-5.23,0-7.6,0-.95,0-1.3-.73-1.76-1.32-4.4-5.6-8.76-11.22-13.2-16.78a1.72,1.72,0,0,1,.08-2.62c4.45-5.34,8.83-10.73,13.24-16.11a2.34,2.34,0,0,1,1.89-1.14C330.45,168.08,332.67,168.06,335.66,168.06Z" transform="translate(-66.33 -70.93)"/><rect x="276.48" y="128.68" width="25.6" height="6.57"/><path d="M342.81,188.2v.71A2.8,2.8,0,0,1,342.81,188.2Z" transform="translate(-66.33 -70.93)"/><path d="M232.28,124.74a6.63,6.63,0,0,1-13.25,0,6.63,6.63,0,0,1,13.25,0Z" transform="translate(-66.33 -70.93)"/><path d="M208.93,131.32a6.59,6.59,0,1,1,.14-13.18,6.59,6.59,0,1,1-.14,13.18Z" transform="translate(-66.33 -70.93)"/><path d="M225.47,142.07a5.55,5.55,0,0,1-1.53,4.07,4.27,4.27,0,0,1-2.43,2.18,6.12,6.12,0,0,1-5.83,1,8.11,8.11,0,0,1-6.62-9.16,8.29,8.29,0,0,1,9.23-7C222.85,133.63,225.74,137.21,225.47,142.07Z" transform="translate(-66.33 -70.93)"/><path d="M159.91,206.09h0Z" transform="translate(-66.33 -70.93)"/><path d="M239.36,111.47a5.55,5.55,0,0,1-5.54,5.32,5.35,5.35,0,1,1,.3-10.69A5.62,5.62,0,0,1,239.36,111.47Z" transform="translate(-66.33 -70.93)"/><path d="M222.66,111.54a5.33,5.33,0,1,1-5.38-5.44A5.45,5.45,0,0,1,222.66,111.54Z" transform="translate(-66.33 -70.93)"/><path d="M206,111.4a5.28,5.28,0,0,1-5.35,5.38,5.34,5.34,0,0,1,.14-10.68A5.41,5.41,0,0,1,206,111.4Z" transform="translate(-66.33 -70.93)"/><path d="M246.59,100.91a4.33,4.33,0,0,1-4.38,4.14,4.2,4.2,0,1,1,4.38-4.14Z" transform="translate(-66.33 -70.93)"/><path d="M229.89,100.9a4.26,4.26,0,1,1-4.2-4.25A4.23,4.23,0,0,1,229.89,100.9Z" transform="translate(-66.33 -70.93)"/><path d="M192.21,105.05a4.2,4.2,0,1,1,.31-8.4,4.11,4.11,0,0,1,4,4.34A4.16,4.16,0,0,1,192.21,105.05Z" transform="translate(-66.33 -70.93)"/><path d="M209,96.65a4.07,4.07,0,0,1,4.22,4.17,4.12,4.12,0,0,1-4.18,4.23,4.2,4.2,0,1,1,0-8.4Z" transform="translate(-66.33 -70.93)"/><path d="M184,95.7a3.33,3.33,0,0,1-3.33-3.46A3.28,3.28,0,0,1,184.21,89a3,3,0,0,1,3.14,3.31A3.19,3.19,0,0,1,184,95.7Z" transform="translate(-66.33 -70.93)"/><path d="M237.38,92.23A3.37,3.37,0,0,1,234,95.69a3.14,3.14,0,0,1-3.38-3.11A3.22,3.22,0,0,1,233.8,89,3.39,3.39,0,0,1,237.38,92.23Z" transform="translate(-66.33 -70.93)"/><path d="M254,92.44a3.27,3.27,0,0,1-3.53,3.24,3.34,3.34,0,0,1,.19-6.67A3.27,3.27,0,0,1,254,92.44Z" transform="translate(-66.33 -70.93)"/><path d="M204.08,92.44a3.46,3.46,0,0,1-3.58,3.26,3.37,3.37,0,0,1-3.21-3.58A3.23,3.23,0,0,1,200.72,89,3.32,3.32,0,0,1,204.08,92.44Z" transform="translate(-66.33 -70.93)"/><path d="M217.27,95.7A3.35,3.35,0,1,1,217.5,89a3.22,3.22,0,0,1,3.23,3.32A3.39,3.39,0,0,1,217.27,95.7Z" transform="translate(-66.33 -70.93)"/><path d="M261.68,85.38a2.62,2.62,0,0,1-2.52,2.81,2.67,2.67,0,0,1-.45-5.32C260.47,82.73,261.35,83.82,261.68,85.38Z" transform="translate(-66.33 -70.93)"/><path d="M175.71,88.24c-1.73-.17-2.77-1.14-2.69-2.8a2.7,2.7,0,0,1,5.4.08A2.58,2.58,0,0,1,175.71,88.24Z" transform="translate(-66.33 -70.93)"/><path d="M245.06,85.61c-.32,1.71-1.3,2.72-3,2.58a2.47,2.47,0,0,1-2.45-2.77,2.53,2.53,0,0,1,2.69-2.57C244.05,82.86,244.84,84,245.06,85.61Z" transform="translate(-66.33 -70.93)"/><path d="M228.35,85.32c-.11,1.68-.87,2.77-2.49,2.86a2.48,2.48,0,0,1-2.9-2.55,2.52,2.52,0,0,1,2.71-2.77C227.32,82.83,228.07,83.93,228.35,85.32Z" transform="translate(-66.33 -70.93)"/><path d="M192.48,82.81c1.56.31,2.63,1.12,2.53,2.91a2.42,2.42,0,0,1-2.7,2.48,2.48,2.48,0,0,1-2.61-2.84C189.79,83.75,190.83,83,192.48,82.81Z" transform="translate(-66.33 -70.93)"/><path d="M211.64,85.27c0,1.83-.83,2.83-2.43,2.92a2.66,2.66,0,1,1,2.43-2.92Z" transform="translate(-66.33 -70.93)"/><path d="M200.68,82.31a2.15,2.15,0,0,1-2.1-2.13,2,2,0,0,1,2-2.2,2,2,0,0,1,2.25,2.19C202.79,81.47,201.94,82.11,200.68,82.31Z" transform="translate(-66.33 -70.93)"/><path d="M167.54,82.32c-1.4-.15-2.27-.91-2.31-2.13a2,2,0,0,1,2.28-2.2,2,2,0,0,1,2.06,2.17A2.2,2.2,0,0,1,167.54,82.32Z" transform="translate(-66.33 -70.93)"/><path d="M252.81,80.09a2.16,2.16,0,0,1-2.07,2.17,2,2,0,0,1-2.27-2.2A2,2,0,0,1,250.6,78,2.16,2.16,0,0,1,252.81,80.09Z" transform="translate(-66.33 -70.93)"/><path d="M233.85,78a2,2,0,0,1,2.22,2,2,2,0,0,1-1.88,2.3,2,2,0,0,1-2.36-2.09C231.74,78.83,232.62,78.18,233.85,78Z" transform="translate(-66.33 -70.93)"/><path d="M269.43,80.2c-.2,1.21-.87,2.08-2.16,2a2,2,0,0,1-2.14-2.31,1.94,1.94,0,0,1,2.23-2A2.13,2.13,0,0,1,269.43,80.2Z" transform="translate(-66.33 -70.93)"/><path d="M219.42,80.28a2,2,0,0,1-2.15,2,2,2,0,0,1-2.06-2.37,2.11,2.11,0,0,1,4.21.4Z" transform="translate(-66.33 -70.93)"/><path d="M184.15,78c1.2.2,2.08.88,2,2.16a2,2,0,0,1-2.34,2.12A2,2,0,0,1,181.91,80C182,78.69,182.81,78,184.15,78Z" transform="translate(-66.33 -70.93)"/><path d="M177.46,75.62a1.72,1.72,0,0,1-1.74,1.86A1.64,1.64,0,0,1,174,75.71a1.59,1.59,0,0,1,1.61-1.63A1.65,1.65,0,0,1,177.46,75.62Z" transform="translate(-66.33 -70.93)"/><path d="M227.39,75.57c-.07,1.1-.57,1.8-1.54,1.89A1.57,1.57,0,0,1,224,75.85a1.54,1.54,0,0,1,1.46-1.77C226.62,73.92,227.11,74.7,227.39,75.57Z" transform="translate(-66.33 -70.93)"/><path d="M260.67,75.59c-.12,1.28-.8,1.92-1.82,1.89a1.71,1.71,0,0,1,0-3.42C260,74,260.45,74.78,260.67,75.59Z" transform="translate(-66.33 -70.93)"/><path d="M159,77.53c-1-.29-1.75-.84-1.61-2a1.73,1.73,0,0,1,3.44.25C160.75,76.89,160,77.4,159,77.53Z" transform="translate(-66.33 -70.93)"/><path d="M275.54,77.52c-1.09-.23-1.76-.81-1.65-1.94a1.68,1.68,0,0,1,3.34.11C277.26,76.84,276.54,77.34,275.54,77.52Z" transform="translate(-66.33 -70.93)"/><path d="M244,75.78a1.72,1.72,0,0,1-1.91,1.69,1.59,1.59,0,0,1-1.56-1.73,1.62,1.62,0,0,1,1.89-1.65A1.69,1.69,0,0,1,244,75.78Z" transform="translate(-66.33 -70.93)"/><path d="M208.93,77.51a1.71,1.71,0,0,1-1.58-1.92,1.49,1.49,0,0,1,1.7-1.52,1.58,1.58,0,0,1,1.65,1.85C210.66,76.92,209.93,77.38,208.93,77.51Z" transform="translate(-66.33 -70.93)"/><path d="M192.49,77.52c-1-.11-1.71-.59-1.79-1.57a1.55,1.55,0,0,1,1.6-1.87A1.52,1.52,0,0,1,194,75.56C194.15,76.72,193.43,77.24,192.49,77.52Z" transform="translate(-66.33 -70.93)"/><path d="M234.11,71a1.33,1.33,0,0,1-.2,2.65,1.23,1.23,0,0,1-1.35-1.44C232.62,71.42,233.06,70.93,234.11,71Z" transform="translate(-66.33 -70.93)"/><path d="M152.06,72.29c-.17.81-.58,1.38-1.51,1.31a1.21,1.21,0,0,1-1.21-1.33,1.26,1.26,0,0,1,1.48-1.33C151.61,71,151.94,71.55,152.06,72.29Z" transform="translate(-66.33 -70.93)"/><path d="M200.51,73.62a1.34,1.34,0,1,1,1.43-1.32C202,73,201.51,73.55,200.51,73.62Z" transform="translate(-66.33 -70.93)"/><path d="M217.45,70.94a1.35,1.35,0,1,1-1.59,1.39A1.33,1.33,0,0,1,217.45,70.94Z" transform="translate(-66.33 -70.93)"/><path d="M285.16,72.34c-.13.79-.54,1.28-1.34,1.26a1.25,1.25,0,0,1-1.36-1.43,1.23,1.23,0,0,1,1.32-1.23A1.29,1.29,0,0,1,285.16,72.34Z" transform="translate(-66.33 -70.93)"/><path d="M168.65,72.43a1.25,1.25,0,0,1-1.37,1.15A1.21,1.21,0,0,1,166.07,72a1.15,1.15,0,0,1,1.44-1A1.28,1.28,0,0,1,168.65,72.43Z" transform="translate(-66.33 -70.93)"/><path d="M184,70.94a1.24,1.24,0,0,1,1.27,1.3,1.21,1.21,0,0,1-1.46,1.33,1.15,1.15,0,0,1-1.13-1.38A1.27,1.27,0,0,1,184,70.94Z" transform="translate(-66.33 -70.93)"/><path d="M268.44,72.36a1.3,1.3,0,0,1-2.6,0A1.23,1.23,0,0,1,267.3,71,1.19,1.19,0,0,1,268.44,72.36Z" transform="translate(-66.33 -70.93)"/><path d="M250.47,70.94a1.26,1.26,0,0,1,1.35,1.22,1.3,1.3,0,1,1-2.6.1A1.26,1.26,0,0,1,250.47,70.94Z" transform="translate(-66.33 -70.93)"/><rect x="90.36" y="97.05" width="25.6" height="6.57"/><path d="M182.29,184.19v6.56H163.55a1.27,1.27,0,0,0-.27.3v15h-6.56V190.75h0v-6.56Z" transform="translate(-66.33 -70.93)"/><rect x="276.48" y="97.16" width="25.6" height="6.56"/><path d="M365.55,183.84v6.56H342.81v-6.56h2.13c3.09.1,6.19,0,9.28,0s6.19.08,9.28,0Z" transform="translate(-66.33 -70.93)"/><path d="M363.5,183.84c-3.09.11-6.19,0-9.28,0s-6.19.07-9.28,0Z" transform="translate(-66.33 -70.93)"/><path d="M221.31,206c-2.32,0-4.25,0-6.17,0-1.14,0-1.34-.92-1.73-1.64-2.23-4-4.47-8.1-6.61-12.19a2.75,2.75,0,0,0-1.41-1.44H191.5v-6.41h2.33c.51,0,1.16,0,2,0,4.47,0,8.95,0,13.42,0,3.48,0,5-1.62,5-5,0-3.25-1.58-4.71-5-4.74l-4.21,0-8.43-.05a1.9,1.9,0,0,1-.25,0l-.91,0h-3.9v-6.4h1.74c1.64.07,3.26.12,4.89.17,1.2-.08,2.4-.14,3.6-.17H207c.84,0,1.68.06,2.52.11l1.24.08c5.13.36,8.73,3.53,9.61,8.17,1.12,5.94-1,11.34-5.55,13.44-1.63.75-1.67,1.28-.87,2.68C216.4,196.87,218.72,201.25,221.31,206Z" transform="translate(-66.33 -70.93)"/><path d="M201.73,168.09c-1.2,0-2.4.09-3.6.17-1.63,0-3.25-.1-4.89-.17Z" transform="translate(-66.33 -70.93)"/><path d="M205,174.49H195.4l.91,0a1.9,1.9,0,0,0,.25,0Z" transform="translate(-66.33 -70.93)"/><path d="M209.51,168.09v.11c-.84,0-1.68-.09-2.52-.11Z" transform="translate(-66.33 -70.93)"/></svg>